<svg xmlns="http://www.w3.org/2000/svg" width="1300" height="1300" viewBox="0 0 1300 1300">
  <defs>
    <style>
      .cls-1 {
        stroke: #NaNNaNNaN;
        stroke-width: 10px;
        stroke-dasharray: 1 7 1 7;
        fill-rule: evenodd;
      }
    </style>
  </defs>
  <path class="cls-1" d="M122.263,34l9.311,1.179v5.9L94.328,194.36c-5.5,21.732-6.323,51.945-19.658,64.852-7.9,7.65-27.46,14.872-44.489,10.612C2.04,262.783-.583,229.076,22.94,214.405c20.859-13.009,42.7,2.262,56.9,4.717Q101.051,126.57,122.263,34ZM878.569,56.4c17.905-.528,49.129-3.529,60.007,5.9L873.4,82.344c-34.335,12.291-68.351,29.878-96.219,50.7-33.318,24.9-67.5,56.962-92.081,91.971-9.455,13.467-22.776,43.133-37.246,49.523,13.26-89.535,89.172-169.445,156.227-199.271C826.31,65.379,856.118,66.475,878.569,56.4ZM297.113,88.24c83.852-1.776,129.639,24.445,174.851,64.852,12.558,11.223,35.325,28.662,40.35,47.165l-4.139-2.358-33.107-25.941c-31.45-21.543-66.469-35.123-109.67-43.627C209.534,97.645,114.98,316.341,182.271,466.737,220.134,551.361,294.1,607.042,360.225,660.112L541.283,805.144c24,20.187,44.454,45.922,67.25,67.209,38.511,35.962,95.1,110.508,106.566,174.507-1.379-.39-2.759-0.78-4.139-1.18-17.736-55.145-104.528-131.673-147.95-162.714l-80.7-61.315-79.666-50.7c-96.033-66.75-203.3-134.611-262.793-242.9C78.47,416.325,95.573,260.7,160.544,168.42c21.806-30.972,58.127-57.842,95.185-70.748Zm257.62,12.97c23.251,0.364,28.548,21.906,37.246,38.911,33.245,64.987,27.089,130.567-2.069,194.554q10.863,25.938,21.727,51.882c51.229-5.208,103.74,32.916,85.873,100.225-6.12,23.056-20.018,32.728-32.073,48.343,9.035,36.148,59.238,109.586,11.381,137.957-44.262,26.24-105.556-25.746-74.492-71.926,26.7-39.688,80.129,19.815,32.073,51.881q0.518,1.179,1.034,2.359c78.3,29.312,38.274-85.567,21.727-115.554C584.7,575.158,501.954,515.583,515.418,423.109c7.318-50.263,28.662-78.55,45.523-116.733l-19.658-56.6C528.667,205.587,530.111,127.516,554.733,101.21Zm374.532,22.4c159.915-2.944,286.735,158.652,223.475,344.3C1093.77,641,979.256,765.141,880.638,894.757q-47.07,66.614-94.15,133.243-16.035,27.7-32.074,55.42v-4.72C814.6,883.689,936.4,748.024,1026.52,584.648c27.06-49.056,95.38-162.043,77.6-247.614-19.22-92.489-110.53-183.686-222.448-150.928-43.953,12.866-79.513,37.184-110.7,64.852-24.459,21.7-46.954,51.427-65.181,80.18-6.957,10.975-13.768,35.74-24.83,41.269V368.87c33.3-100.234,83.7-182.4,168.642-222.854l49.662-17.686ZM573.356,153.091c-29.6,29.817-17.33,94.857-6.207,134.42h1.034C572.648,264.016,610.036,166.225,573.356,153.091Zm615.594,91.971h9.32c12.61,18.629,40.47,23.528,56.9,37.732,24.52,21.2,18.16,42.715,28.97,79,3.59,12.047,12.13,31.267,9.31,47.165h-1.03c-1.04-.393-2.07-0.786-3.11-1.179-12.04-44.2-37.57-57.141-74.49-73.106v1.179c5.34,17.7,28.11,114.326,24.83,129.7-6.13,28.8-32.92,45.2-62.08,37.732-23.9-34.679,11.09-74.1,49.66-67.209q-13.965-66.615-27.93-133.241C1195.78,286.988,1185.36,262.206,1188.95,245.062Zm15.52,41.269c10.5,20.846,43.99,33.15,62.08,44.807C1248.42,301.076,1229.03,305.946,1204.47,286.331ZM577.5,354.72C565.787,384.2,533.694,413.9,541.283,463.2c6.511,42.291,30.66,82.1,77.6,71.926,13.166-2.853,22.988-3.618,30-12.97l-37.246-82.538-3.1,2.358c-10.2,26.1-1.813,50.647,16.554,63.673q-0.518,2.947-1.034,5.895c-53.84.129-62.771-81.226-30-115.554Q585.772,375.357,577.5,354.72Zm54.835,73.106-3.1,1.179q14.482,41.855,28.969,83.717l2.069-1.179C672.882,479.069,679.171,427.853,632.33,427.826ZM177.1,701.381c51.323,6.841,115.06,17.2,120.015,75.464h-4.138c-10.6-16-28.891-33.986-48.627-38.911-14.81-3.7-30.466,3.257-43.454-1.179q42.931,73.1,85.873,146.211c12.267,36.047-24.331,73.3-52.765,64.851-26.515-38.693,5.747-66.642,32.073-80.18l-3.1-3.537L196.755,747.367c-7.749-12.379-21.775-25.616-24.83-42.448ZM344.706,809.86c44.967,6.539,83.485,29.8,118.981,47.165C574.061,911.007,651.829,1003.89,710.96,1116.43,727.951,1148.77,769.078,1223.14,772,1265c-1.035-.39-2.069-0.79-3.1-1.18q-25.346-42.45-50.7-84.9c-41.914-70.51-88.421-146.46-145.881-199.267l-82.77-75.463c-27.843-27.27-68.629-47.072-101.392-67.21C376.819,830.009,350.211,822.945,344.706,809.86Zm538,124.987L1061.7,946.638q-21.21,80.178-42.42,160.362c-8.13,29.84-9.31,56.35-36.215,64.85-23.27,7.35-63.328-6.71-50.7-37.73,6.308-15.5,31.849-28.04,53.8-21.23l19.661,10.62q18.615-70.74,37.24-141.5l-160.363-9.432Q865.121,1038.6,847.53,1104.64c-4.34,14.51-4.977,34.82-13.45,44.81-10.135,11.95-37.231,19.48-55.869,10.61-53.187-25.32,26.717-87.23,55.869-44.81,0.69-.39,1.38-0.78,2.069-1.18Q859.426,1024.475,882.707,934.847Z"/>
</svg>
